<svg version="1.1" xmlns="http://www.w3.org/2000/svg" viewBox="0 0 305.30806883588957 642.5703639299791" width="610.6161376717791" height="1285.1407278599581">
  <!-- svg-source:excalidraw -->
  
  <defs>
    <style>
      @font-face {
        font-family: "Virgil";
        src: url("https://excalidraw.com/Virgil.woff2");
      }
      @font-face {
        font-family: "Cascadia";
        src: url("https://excalidraw.com/Cascadia.woff2");
      }
    </style>
  </defs>
  <rect x="0" y="0" width="305.30806883588957" height="642.5703639299791" fill="#ffffff"></rect><g transform="translate(10.013532758005113 598.7239703231062) rotate(0.04589043845735521 33.81931181945447 16.909655909727007)"><text x="0" y="27.819311819454406" font-family="Helvetica, Segoe UI Emoji" font-size="29.69084694867399px" fill="#000000" text-anchor="start" style="white-space: pre;" direction="ltr">Time</text></g><g stroke-linecap="round"><g transform="translate(-232.35979672707504 328.1655439701426) rotate(89.77129748327265 259.36243575859544 1.5192330155960008)"><path d="M0.58 1.12 C87.12 1.45, 432.96 1.03, 519.3 1.14 M-0.57 0.67 C85.83 1.21, 432.16 1.95, 518.54 2.37" stroke="#000000" stroke-width="4" fill="none"></path></g><g transform="translate(-232.35979672707504 328.1655439701426) rotate(89.77129748327265 259.36243575859544 1.5192330155960008)"><path d="M492.18 13.13 C498.03 8.74, 507.79 4.89, 517.14 3.54 M490.29 13.43 C500.06 10.11, 507.7 5.76, 518.73 2.34" stroke="#000000" stroke-width="4" fill="none"></path></g><g transform="translate(-232.35979672707504 328.1655439701426) rotate(89.77129748327265 259.36243575859544 1.5192330155960008)"><path d="M492.25 -7.39 C497.94 -5.5, 507.68 -3.06, 517.14 3.54 M490.36 -7.09 C500.11 -3.95, 507.73 -1.84, 518.73 2.34" stroke="#000000" stroke-width="4" fill="none"></path></g></g><g stroke-linecap="round"><g transform="translate(127.4369962864721 125.7423472297105) rotate(89.77129748327265 58.78552167106227 0.026083943511821417)"><path d="M-0.62 0.96 C18.72 0.78, 96.38 -0.6, 115.94 -0.91 M1.26 0.42 C20.99 0.4, 99.08 0.48, 118.19 0.45" stroke="#c92a2a" stroke-width="2" fill="none"></path></g><g transform="translate(127.4369962864721 125.7423472297105) rotate(89.77129748327265 58.78552167106227 0.026083943511821417)"><path d="M91.6 9.24 C97.62 7.72, 105.83 5.93, 119.69 -1.5 M89.55 10 C98.41 6.75, 107.56 4.16, 118.26 -0.05" stroke="#c92a2a" stroke-width="2" fill="none"></path></g><g transform="translate(127.4369962864721 125.7423472297105) rotate(89.77129748327265 58.78552167106227 0.026083943511821417)"><path d="M91.6 -11.29 C97.65 -6.83, 105.86 -2.64, 119.69 -1.5 M89.55 -10.52 C98.59 -6.99, 107.74 -2.8, 118.26 -0.05" stroke="#c92a2a" stroke-width="2" fill="none"></path></g></g><g stroke-linecap="round"><g transform="translate(237.4525904037596 244.58827688083875) rotate(89.77129748327265 45.432845689541864 0.007834934488073486)"><path d="M-0.34 0.63 C14.92 0.54, 76.04 -0.77, 91.2 -0.61 M1.69 -0.08 C16.89 -0.06, 76 0.33, 90.73 0.32" stroke="#364fc7" stroke-width="2" fill="none"></path></g><g transform="translate(237.4525904037596 244.58827688083875) rotate(89.77129748327265 45.432845689541864 0.007834934488073486)"><path d="M63.56 11.99 C68.22 8.41, 79.57 4.75, 89.84 -1.1 M62.69 10.55 C68.23 8.17, 74.18 6.18, 90.86 0.64" stroke="#364fc7" stroke-width="2" fill="none"></path></g><g transform="translate(237.4525904037596 244.58827688083875) rotate(89.77129748327265 45.432845689541864 0.007834934488073486)"><path d="M63.62 -8.53 C68.25 -6.54, 79.59 -4.63, 89.84 -1.1 M62.76 -9.97 C68.15 -7.87, 74.09 -5.39, 90.86 0.64" stroke="#364fc7" stroke-width="2" fill="none"></path></g></g><g stroke-linecap="round"><g transform="translate(149.80879064452756 428.07596556917906) rotate(89.77129748327265 45.24425004148338 -0.7436190860648821)"><path d="M-0.96 0.6 C13.79 0.17, 73.9 -1.83, 89.28 -2.08 M0.73 -0.14 C15.78 -0.48, 76.4 -1.16, 91.45 -1.05" stroke="#c92a2a" stroke-width="2" fill="none"></path></g><g transform="translate(149.80879064452756 428.07596556917906) rotate(89.77129748327265 45.24425004148338 -0.7436190860648821)"><path d="M64.29 7.6 C71.93 7.44, 84.17 1.94, 89.95 -0.68 M62.55 8.82 C73.8 5.71, 85 2.54, 90.69 -1.92" stroke="#c92a2a" stroke-width="2" fill="none"></path></g><g transform="translate(149.80879064452756 428.07596556917906) rotate(89.77129748327265 45.24425004148338 -0.7436190860648821)"><path d="M64.22 -12.92 C71.97 -5.6, 84.24 -3.62, 89.95 -0.68 M62.48 -11.7 C73.66 -7.21, 84.89 -2.78, 90.69 -1.92" stroke="#c92a2a" stroke-width="2" fill="none"></path></g></g><g stroke-linecap="round"><g transform="translate(242.5259878430652 485.232452383937) rotate(89.77129748327265 45.150470572150425 0.282190441075727)"><path d="M0 0 C15.05 0.09, 75.25 0.47, 90.3 0.56 M0 0 C15.05 0.09, 75.25 0.47, 90.3 0.56" stroke="#364fc7" stroke-width="2" fill="none"></path></g><g transform="translate(242.5259878430652 485.232452383937) rotate(89.77129748327265 45.150470572150425 0.282190441075727)"><path d="M62.05 10.65 C69.28 8.07, 76.52 5.48, 90.3 0.56 M62.05 10.65 C70.74 7.55, 79.43 4.45, 90.3 0.56" stroke="#364fc7" stroke-width="2" fill="none"></path></g><g transform="translate(242.5259878430652 485.232452383937) rotate(89.77129748327265 45.150470572150425 0.282190441075727)"><path d="M62.17 -9.87 C69.38 -7.2, 76.58 -4.53, 90.3 0.56 M62.17 -9.87 C70.82 -6.66, 79.47 -3.45, 90.3 0.56" stroke="#364fc7" stroke-width="2" fill="none"></path></g></g><g stroke-linecap="round"><g stroke-opacity="0.9" fill-opacity="0.9" transform="translate(34.808068835890026 201.16666666666788) rotate(0 126.25 -0.8333333333334849)"><path d="M0 0 C42.08 -0.28, 210.42 -1.39, 252.5 -1.67" stroke="#364fc7" stroke-width="2.5" fill="none" stroke-dasharray="8 10"></path></g><g stroke-opacity="0.9" fill-opacity="0.9" transform="translate(34.808068835890026 201.16666666666788) rotate(0 126.25 -0.8333333333334849)"><path d="M252.5 -1.67 L238.95 4.76 L238.86 -7.92 L252.5 -1.67" stroke="none" stroke-width="0" fill="#364fc7" fill-rule="evenodd"></path><path d="M252.5 -1.67 C249.11 -0.06, 245.72 1.55, 238.95 4.76 M238.95 4.76 C238.92 0.44, 238.89 -3.88, 238.86 -7.92 M238.86 -7.92 C244.02 -5.55, 249.18 -3.19, 252.5 -1.67 M252.5 -1.67 C252.5 -1.67, 252.5 -1.67, 252.5 -1.67" stroke="#364fc7" stroke-width="2.5" fill="none"></path></g></g><g stroke-linecap="round"><g stroke-opacity="0.9" fill-opacity="0.9" transform="translate(36.05806883588912 284.5) rotate(0 126.25 -0.8333333333334849)"><path d="M0 0 C42.08 -0.28, 210.42 -1.39, 252.5 -1.67" stroke="#364fc7" stroke-width="2.5" fill="none" stroke-dasharray="8 10"></path></g><g stroke-opacity="0.9" fill-opacity="0.9" transform="translate(36.05806883588912 284.5) rotate(0 126.25 -0.8333333333334849)"><path d="M0 0 L13.55 -6.43 L13.64 6.25 L0 0" stroke="none" stroke-width="0" fill="#364fc7" fill-rule="evenodd"></path><path d="M0 0 C5.08 -2.41, 10.17 -4.82, 13.55 -6.43 M13.55 -6.43 C13.57 -3.52, 13.59 -0.6, 13.64 6.25 M13.64 6.25 C8.61 3.95, 3.59 1.65, 0 0 M0 0 C0 0, 0 0, 0 0" stroke="#364fc7" stroke-width="2.5" fill="none"></path></g></g><g stroke-linecap="round"><g stroke-opacity="0.9" fill-opacity="0.9" transform="translate(30.22473550255563 527.0000000000009) rotate(0 126.25 -0.8333333333334849)"><path d="M0 0 C42.08 -0.28, 210.42 -1.39, 252.5 -1.67" stroke="#364fc7" stroke-width="2.5" fill="none" stroke-dasharray="8 10"></path></g><g stroke-opacity="0.9" fill-opacity="0.9" transform="translate(30.22473550255563 527.0000000000009) rotate(0 126.25 -0.8333333333334849)"><path d="M0 0 L13.55 -6.43 L13.64 6.25 L0 0" stroke="none" stroke-width="0" fill="#364fc7" fill-rule="evenodd"></path><path d="M0 0 C4.62 -2.19, 9.23 -4.38, 13.55 -6.43 M13.55 -6.43 C13.58 -2.64, 13.6 1.15, 13.64 6.25 M13.64 6.25 C9.28 4.25, 4.93 2.26, 0 0 M0 0 C0 0, 0 0, 0 0" stroke="#364fc7" stroke-width="2.5" fill="none"></path></g></g><g stroke-linecap="round"><g stroke-opacity="0.9" fill-opacity="0.9" transform="translate(33.55806883588912 442.83333333333303) rotate(0 126.25 -0.8333333333334849)"><path d="M0 0 C42.08 -0.28, 210.42 -1.39, 252.5 -1.67" stroke="#364fc7" stroke-width="2.5" fill="none" stroke-dasharray="8 10"></path></g><g stroke-opacity="0.9" fill-opacity="0.9" transform="translate(33.55806883588912 442.83333333333303) rotate(0 126.25 -0.8333333333334849)"><path d="M252.5 -1.67 L238.95 4.76 L238.86 -7.92 L252.5 -1.67" stroke="none" stroke-width="0" fill="#364fc7" fill-rule="evenodd"></path><path d="M252.5 -1.67 C247.27 0.81, 242.04 3.29, 238.95 4.76 M238.95 4.76 C238.92 -0.02, 238.88 -4.8, 238.86 -7.92 M238.86 -7.92 C241.98 -6.49, 245.09 -5.06, 252.5 -1.67 M252.5 -1.67 C252.5 -1.67, 252.5 -1.67, 252.5 -1.67" stroke="#364fc7" stroke-width="2.5" fill="none"></path></g></g><g stroke-linecap="round"><g stroke-opacity="0.9" fill-opacity="0.9" transform="translate(33.974735502556086 68.66666666666697) rotate(0 74.58333333333326 -0.8333333333334849)"><path d="M0 0 C24.86 -0.28, 124.31 -1.39, 149.17 -1.67" stroke="#c92a2a" stroke-width="2.5" fill="none" stroke-dasharray="8 10"></path></g><g stroke-opacity="0.9" fill-opacity="0.9" transform="translate(33.974735502556086 68.66666666666697) rotate(0 74.58333333333326 -0.8333333333334849)"><path d="M149.17 -1.67 L135.64 4.82 L135.5 -7.85 L149.17 -1.67" stroke="none" stroke-width="0" fill="#c92a2a" fill-rule="evenodd"></path><path d="M149.17 -1.67 C144.48 0.58, 139.79 2.83, 135.64 4.82 M135.64 4.82 C135.6 1.14, 135.56 -2.54, 135.5 -7.85 M135.5 -7.85 C140.26 -5.7, 145.01 -3.55, 149.17 -1.67 M149.17 -1.67 C149.17 -1.67, 149.17 -1.67, 149.17 -1.67" stroke="#c92a2a" stroke-width="2.5" fill="none"></path></g></g><g stroke-linecap="round"><g stroke-opacity="0.9" fill-opacity="0.9" transform="translate(38.558068835890026 384.4999999999991) rotate(0 74.58333333333326 -0.8333333333334849)"><path d="M0 0 C24.86 -0.28, 124.31 -1.39, 149.17 -1.67" stroke="#c92a2a" stroke-width="2.5" fill="none" stroke-dasharray="8 10"></path></g><g stroke-opacity="0.9" fill-opacity="0.9" transform="translate(38.558068835890026 384.4999999999991) rotate(0 74.58333333333326 -0.8333333333334849)"><path d="M149.17 -1.67 L135.64 4.82 L135.5 -7.85 L149.17 -1.67" stroke="none" stroke-width="0" fill="#c92a2a" fill-rule="evenodd"></path><path d="M149.17 -1.67 C144.65 0.5, 140.13 2.67, 135.64 4.82 M135.64 4.82 C135.6 0.54, 135.55 -3.75, 135.5 -7.85 M135.5 -7.85 C140.23 -5.71, 144.95 -3.58, 149.17 -1.67 M149.17 -1.67 C149.17 -1.67, 149.17 -1.67, 149.17 -1.67" stroke="#c92a2a" stroke-width="2.5" fill="none"></path></g></g><g stroke-linecap="round"><g stroke-opacity="0.9" fill-opacity="0.9" transform="translate(31.058068835888662 472.83333333333394) rotate(0 80.83333333333326 -0.8333333333334849)"><path d="M0 0 C26.94 -0.28, 134.72 -1.39, 161.67 -1.67" stroke="#c92a2a" stroke-width="2.5" fill="none" stroke-dasharray="8 10"></path></g><g stroke-opacity="0.9" fill-opacity="0.9" transform="translate(31.058068835888662 472.83333333333394) rotate(0 80.83333333333326 -0.8333333333334849)"><path d="M0 0 L13.53 -6.48 L13.66 6.2 L0 0" stroke="none" stroke-width="0" fill="#c92a2a" fill-rule="evenodd"></path><path d="M0 0 C4.62 -2.21, 9.24 -4.43, 13.53 -6.48 M13.53 -6.48 C13.58 -1.7, 13.63 3.08, 13.66 6.2 M13.66 6.2 C9.36 4.25, 5.07 2.3, 0 0 M0 0 C0 0, 0 0, 0 0" stroke="#c92a2a" stroke-width="2.5" fill="none"></path></g></g><g stroke-opacity="0.9" fill-opacity="0.9" transform="translate(53.974735502556086 42.5) rotate(0 40.5 10.236263736263936)"><text x="0" y="16.472527472527485" font-family="Helvetica, Segoe UI Emoji" font-size="17.802197802197817px" fill="#c92a2a" text-anchor="start" style="white-space: pre;" direction="ltr">read_file()</text></g><g stroke-opacity="0.9" fill-opacity="0.9" transform="translate(72.64140216922306 360.5000000000009) rotate(0 38 9.60439560439545)"><text x="0" y="15.208791208791208" font-family="Helvetica, Segoe UI Emoji" font-size="16.703296703296708px" fill="#c92a2a" text-anchor="start" style="white-space: pre;" direction="ltr">read_file()</text></g><g stroke-linecap="round"><g stroke-opacity="0.9" fill-opacity="0.9" transform="translate(192.30806883588957 406.16666666666697) rotate(0 -79.16666666666674 0.8333333333330302)"><path d="M0 0 C-26.39 0.28, -131.94 1.39, -158.33 1.67" stroke="#a61e4d" stroke-width="2.5" fill="none" stroke-dasharray="8 10"></path></g><g stroke-opacity="0.9" fill-opacity="0.9" transform="translate(192.30806883588957 406.16666666666697) rotate(0 -79.16666666666674 0.8333333333330302)"><path d="M-158.33 1.67 L-144.81 -4.82 L-144.67 7.86 L-158.33 1.67" stroke="none" stroke-width="0" fill="#a61e4d" fill-rule="evenodd"></path><path d="M-158.33 1.67 C-153.82 -0.5, -149.3 -2.66, -144.81 -4.82 M-144.81 -4.82 C-144.76 -0.63, -144.72 3.55, -144.67 7.86 M-144.67 7.86 C-149.98 5.45, -155.3 3.04, -158.33 1.67 M-158.33 1.67 C-158.33 1.67, -158.33 1.67, -158.33 1.67" stroke="#a61e4d" stroke-width="2.5" fill="none"></path></g></g><g stroke-opacity="0.9" fill-opacity="0.9" transform="translate(71.47473550255609 386.66666666666697) rotate(0 40 8)"><text x="0" y="13" font-family="Helvetica, Segoe UI Emoji" font-size="13.636363636363633px" fill="#a61e4d" text-anchor="start" style="white-space: pre;" direction="ltr">return future</text></g><g stroke-linecap="round"><g stroke-opacity="0.9" fill-opacity="0.9" transform="translate(26.474735502556086 188.66666666666515) rotate(0 80.83333333333326 -0.8333333333334849)"><path d="M0 0 C26.94 -0.28, 134.72 -1.39, 161.67 -1.67" stroke="#c92a2a" stroke-width="2.5" fill="none" stroke-dasharray="8 10"></path></g><g stroke-opacity="0.9" fill-opacity="0.9" transform="translate(26.474735502556086 188.66666666666515) rotate(0 80.83333333333326 -0.8333333333334849)"><path d="M0 0 L13.53 -6.48 L13.66 6.2 L0 0" stroke="none" stroke-width="0" fill="#c92a2a" fill-rule="evenodd"></path><path d="M0 0 C2.94 -1.41, 5.89 -2.82, 13.53 -6.48 M13.53 -6.48 C13.57 -2.08, 13.62 2.33, 13.66 6.2 M13.66 6.2 C9.44 4.28, 5.22 2.37, 0 0 M0 0 C0 0, 0 0, 0 0" stroke="#c92a2a" stroke-width="2.5" fill="none"></path></g></g><g stroke-opacity="0.9" fill-opacity="0.9" transform="translate(56.474735502556086 158.33333333333394) rotate(0 36.583333333333485 10.016865079365289)"><text x="0" y="16.03373015873024" font-family="Helvetica, Segoe UI Emoji" font-size="17.420634920634992px" fill="#c92a2a" text-anchor="start" style="white-space: pre;" direction="ltr">return file</text></g><g stroke-opacity="0.9" fill-opacity="0.9" transform="translate(81.1414021692226 452.1666666666679) rotate(0 29.916666666666515 8.191468253968196)"><text x="0" y="13.38293650793642" font-family="Helvetica, Segoe UI Emoji" font-size="14.246031746031674px" fill="#c92a2a" text-anchor="start" style="white-space: pre;" direction="ltr">return file</text></g><g stroke-opacity="0.9" fill-opacity="0.9" transform="translate(212.30806883588957 173.33333333333303) rotate(0 21 11.5)"><text x="0" y="19" font-family="Helvetica, Segoe UI Emoji" font-size="20px" fill="#364fc7" text-anchor="start" style="white-space: pre;" direction="ltr">foo()</text></g><g stroke-opacity="0.9" fill-opacity="0.9" transform="translate(219.64140216922215 413.0000000000009) rotate(0 21 11.5)"><text x="0" y="19" font-family="Helvetica, Segoe UI Emoji" font-size="20px" fill="#364fc7" text-anchor="start" style="white-space: pre;" direction="ltr">foo()</text></g><g stroke-opacity="0.9" fill-opacity="0.9" transform="translate(207.9747355025561 495.5000000000009) rotate(0 26.5 11.5)"><text x="0" y="19" font-family="Helvetica, Segoe UI Emoji" font-size="20px" fill="#364fc7" text-anchor="start" style="white-space: pre;" direction="ltr">return</text></g><g stroke-opacity="0.9" fill-opacity="0.9" transform="translate(206.6414021692226 252.16666666666606) rotate(0 26.5 11.5)"><text x="0" y="19" font-family="Helvetica, Segoe UI Emoji" font-size="20px" fill="#364fc7" text-anchor="start" style="white-space: pre;" direction="ltr">return</text></g><g stroke-opacity="0.9" fill-opacity="0.9" transform="translate(10.641402169222602 12.5) rotate(0 22 11.5)"><text x="0" y="19" font-family="Helvetica, Segoe UI Emoji" font-size="20px" fill="#000000" text-anchor="start" style="white-space: pre;" direction="ltr">Main</text></g><g stroke-opacity="0.9" fill-opacity="0.9" transform="translate(118.1414021692226 10) rotate(0 51 11.5)"><text x="0" y="19" font-family="Helvetica, Segoe UI Emoji" font-size="20px" fill="#c92a2a" text-anchor="start" style="white-space: pre;" direction="ltr">File system</text></g><g stroke-opacity="0.9" fill-opacity="0.9" transform="translate(266.30806883588957 10.50000000000091) rotate(0 14.5 11.5)"><text x="0" y="19" font-family="Helvetica, Segoe UI Emoji" font-size="20px" fill="#364fc7" text-anchor="start" style="white-space: pre;" direction="ltr">foo</text></g></svg>